<?xml version="1.0" encoding="utf-8"?>
<!-- Generator: Adobe Illustrator 21.0.2, SVG Export Plug-In . SVG Version: 6.00 Build 0)  -->
<svg version="1.1" id="Layer_2" xmlns="http://www.w3.org/2000/svg" xmlns:xlink="http://www.w3.org/1999/xlink" x="0px" y="0px"
	 viewBox="0 0 446.4 736.5" style="enable-background:new 0 0 446.4 736.5;" xml:space="preserve">
<style type="text/css">
	.st0{fill:none;}
	.st1{fill:#E4D955;}
</style>
<path class="st0" d="M208.6,183h-13.4v-36.3c0-6.6-5.4-12-12-12h-1c-6.6,0-12,5.4-12,12V183H157c-4.1,0-6.4,4.7-3.9,7.9l25.8,33.1
	c2,2.5,5.8,2.5,7.8,0l25.8-33.1C215,187.7,212.7,183,208.6,183z"/>
<g>
	<path class="st1" d="M18.9,65.9l6.9-18.1c0,0-2.3-17.7,53.2-12.3c0,0,31.6-9.8,55.5-1c0,0,108,1.7,115.7-3.6s79.5-11.2,86.4,17.5
		v14.1c0,0-61.7,9.3-71,6.9c-9.3-2.3-40.9,0-74.8,0.4c0,0-57.9,2.7-98,0S26.6,73.9,18.9,65.9z"/>
	<path class="st1" d="M126.9,26.4c0,0-3.6-27.9,53.3-20.2c0,0,73.9-8.5,58.5,17C238.8,23.1,230.3,29.6,126.9,26.4z"/>
	<path class="st1" d="M352.9,60.9c0,0,17,1.5,14.7,16.2c0,0,44.7-30.1,35.5,24.7c0,0-23.1,206-33.2,217.5
		c-10,11.6-22.4,25.5-61.7,22.4c0,0-10,20.2-3.9,38.2c0,0,12.3-38.2,62.5-33.6c0,0,32.4,13.1,32.4-75.6c0,0,27.8-94.9,33.2-146.6
		S470.2,4.6,352.9,60.9z"/>
	<path class="st1" d="M86.8,435.1c0,0-15.4,6.9,0,20.8V476c0,0,40.9,3.9,57.9,0c0,0,73.3-3.5,83.3,1.7c10,5.2,53.2-10.2,53.2-10.2
		s-1.9-33.9,4-32.4c6,1.5,0-6.2,0-6.2s-35.1,17.3-61.9,14c0,0-6.9,1.5-61.7,2.3S86.8,435.1,86.8,435.1z"/>
	<path class="st1" d="M320.1,587c-18.9-78.7-34.9-113.4-34.9-113.4s-80.4,20.8-151.4,8.5L79.9,486c0,0-11.7-12.4-27.9,106.4
		c0,0-45.5,82.5,20.8,83.3c66.3,0.8,229.4,0,229.4,0S339,665.7,320.1,587z M258.9,537.9l-7.8-2.5
		C251.1,535.4,256.3,525.1,258.9,537.9z M253.1,525.8l-6.2,4.5C246.9,530.3,245.6,521,253.1,525.8z M199.9,503.3c0,0,2.4-3,3.7,2.8
		c0,0-0.8,4.8-3.3,4.3C197.7,509.9,199.9,503.3,199.9,503.3z M190.2,507c0,0,3-2.4,2.9,3.6c0,0-1.9,4.5-4.2,3.4S190.2,507,190.2,507
		z M142.8,541c0,0-4.2,2.3-5.4,0c-1.2-2.3,5.4-4.6,5.4-4.6S146.6,536.4,142.8,541z M259.4,579c-1,15.8-19.3,42.9-19.3,42.9
		s-33.7,33-66.1,12.1c-32.4-20.9-25.5-53.1-24.7-70.6c0.8-17.5,24.7-39.5,24.7-39.5c17-12.2,54,0,54,0
		C242.6,526.4,260.4,563.1,259.4,579z M257.1,551c0,0,6.7-6.7,7.3,2.2L257.1,551z"/>
	<path class="st1" d="M183.9,526.1c0,0-22.3,8.5-30,44c-7.7,35.5,27.3,57.9,27.3,57.9s32.1,19.6,52.2-11.8c0,0,18.5-18.5,15.4-52.7
		C248.8,563.4,234.7,513,183.9,526.1z M238.8,596.3c-10,21.6-33.4,23.9-33.4,23.9c-8.7,7-32.9-10-32.9-10
		c-15.4-7.7-9.3-46.8-9.3-46.8c0.8-22.1,27.3-29.6,27.3-29.6c28.1-2.3,36.7,7.7,44.8,21.6C243.3,569.3,238.8,596.3,238.8,596.3z"/>
	<path class="st1" d="M214.1,540.8c0,0-13.6-3.5-23.6,0c0,0-30.4,3.4-22.7,41.4c0,0-4.3,27.2,27.5,33.4c0,0,23.4,6.2,38-22.4
		C233.4,593.2,244.2,557,214.1,540.8z M209.4,563c-0.8,34.6-14.1,11.9-14.1,11.9c-13.4-27.6,5-30.3,5-30.3
		C215.1,545.4,209.4,563,209.4,563z"/>
	<path class="st1" d="M201,574.9c0,0,6.2,2.9,3.9-21C204.8,553.9,186.3,539.6,201,574.9z"/>
	<path class="st1" d="M86.8,681.2c0,0-44.3-2-43.2-8.5c0,0-9.3-5.4-17,8.5c0,0-6.9,20.8,30.1,21.6c37,0.8,124.5,0,124.5,0
		s81.6,4.6,87.3-3.9c0,0,1.1-3.9,40.4-1.5c0,0,40.9-12.1,11.6-25.7c0,0-37,16.5-59.8,8.7C260.8,680.4,107.6,675,86.8,681.2z"/>
	<path class="st1" d="M316.7,704c0,0,13.1,23.4-27,20.3c0,0-156.6,0-192.9,4.6H54.4l-4.6-21.6c0,0,112.7-3.9,128.8,0.8
		C178.6,708.2,307.4,713,316.7,704z"/>
	<path class="st1" d="M324,74c-23.1,9.2-100.7,0-100.7,0c-34.7,4.6-155.1,0-155.1,0c-44,4.6-54.4-8.1-54.4-8.1
		c-31.2-1.2,0,16.2,0,16.2s55.5,339,76.4,348.3s37,5.9,37,5.9c31.2,9.3,104.1-0.1,104.1-0.1s50.9,2.3,52.1-18.5
		c1.2-20.8,31.2-109.9,31.2-109.9l37-193.2C374.9,62.5,347.1,64.8,324,74z M192.9,315.1c-4.6,5.8-13.4,5.8-17.9,0l-59.8-76.6
		c-5.8-7.5-0.5-18.4,9-18.4H155V136c0-15.3,12.5-27.8,27.8-27.8h2.3c15.3,0,27.8,12.5,27.8,27.8v84.1h30.9c9.5,0,14.8,10.9,9,18.4
		L192.9,315.1z M233.4,421.2c0,0,47.1-279.3,49.4-303.2c2.3-23.9,6.9-10.8,6.9-10.8s-41.7,260-48.8,299.3
		C233.7,445.9,233.4,421.2,233.4,421.2z M252.6,404.2c-0.8-4.6,12.3-5.4,13.5,0C266.1,404.2,253.4,408.8,252.6,404.2z M265.8,380
		c0,0-6.2-6.6,2.8-6.6L265.8,380z M268.8,334.8c-2.3-4.6,8.5-6.2,8.9,0C277.7,334.8,271.2,339.4,268.8,334.8z M278.1,297.8
		c5.4-11.6,14.6,0,14.6,0S274.9,304.6,278.1,297.8z M299.3,253.2c0,0-18.2-0.1-6.6-6.3C304.3,240.7,299.3,253.2,299.3,253.2z
		 M305.9,209.8c0,0-18.5,4.6-11.6-4.7s11.6,0,11.6,0V209.8z M316.7,161.2c0,0-8.5,2.3-10.8,0c-2.3-2.3,10.8-4.6,10.8-4.6
		S324.4,156.6,316.7,161.2z M309.7,128c-3.9-5.4-3.9-5.4-3.9-5.4s12.3-6.9,14.2,0C320.1,122.6,313.6,133.4,309.7,128z"/>
</g>
</svg>
