<?xml version="1.0" encoding="utf-8"?>
<!-- Generator: Adobe Illustrator 21.0.2, SVG Export Plug-In . SVG Version: 6.00 Build 0)  -->
<svg version="1.1" id="Layer_2" xmlns="http://www.w3.org/2000/svg" xmlns:xlink="http://www.w3.org/1999/xlink" x="0px" y="0px"
	 viewBox="0 0 970.3 698.3" style="enable-background:new 0 0 970.3 698.3;" xml:space="preserve">
<style type="text/css">
	.st0{fill:#CC4A4A;}
	.st1{fill:#E4D955;}
	.st2{fill:#CC4A4A;stroke:#CC4A4A;stroke-miterlimit:10;}
</style>
<g>
	<path class="st0" d="M180.8,87.4L150,96.9c0,0-13,7.1-18.4,23.7c0,0-10.1,17.2-25.5,33.8c0,0-77,91.2-89.5,148.7
		c0,0-18.4,40.3-16.6,51.5c1.8,11.3,40.3,27.3,40.3,27.3s87.1,44.4,225.7,43.8c0,0,98.3,7.7,129.7-123.8c0,0-56.3-60.4-145.7-19
		c0,0-66.4-36.1-133.3,16c0,0,11.8-15,21.1-35.9c2.4-5.3,3.7-11,4-16.9c0.7-12.9,3.7-39.4,15.8-59.3c16.6-27.3,20.1-37.3,20.1-37.3
		l20.1-13.6L180.8,87.4z"/>
	<path class="st1" d="M408.9,298l-13,3.9c0,0-17.8,121.8-129.7,123.8c0,0,26.6,76.1,40.9,100.4c0,0,27.3,78.8,34.4,124.4h280.2
		c0,0,16-88.9,44.4-142.8c0,0,26.1-58.4,32.6-81.9c0,0-102.5,5.5-131.5-124.2l-10.7-3.6c0,0-1.8,53.9-69.3,57.5
		C487.1,355.5,413.6,362,408.9,298z"/>
	<path class="st0" d="M404.2,133.9c0,0-13-81.2,48.6-108.4c0,0,74.6-26.7,105.5,43.2c0,0,10.7,30.2,6.5,65.2c0,0,17.2-3.6,11.3,26.1
		c0,0-6.5,36.1-24.3,48.6c0,0-32,51,4.7,89.5c0,0-0.6,55.1-69.3,57.5c0,0-68.6,5.4-77.8-53.9c0,0,38.2-33.2,10.3-90.7
		c0,0-29.9-20.8-25.2-65.3c0.6-5.5,4.4-10.1,9.6-11.7L404.2,133.9z"/>
	<path class="st0" d="M567.1,301.6c0,0,19.6,121.1,131.5,124.2v-7.5c0,0,51.5,33.8,109.6,28.4c0,0,17.2,0,40.9-13.6
		c0,0-2.4,86.5,3.6,106.6c6.6,22.4,9.6,65.2,7.5,78.2c-2.2,13-4.5,0.6-18.7,8.3c0,0-12.4,11.8-20.1,0c0,0-7.1,1.2-15.4,24.3
		c0,0-10.7,16,6.5,24.9c0,0,21.3,37.3,42.1,16.6c20.7-20.7,49.8-46.8,49.8-46.8s4.7-5.3,5.3-22.5c0,0-7.7-7.7,13-43.2
		c20.7-35.5,3-69.9,3-69.9s67.5-80,36.7-115.5c0,0-3.6-17.5-45.6-38.4c0,0-117.9-51.7-135.7-51.1c0,0-19-5.3-46.8-6.5
		C734.2,298,679.1,222.8,567.1,301.6z"/>
	<path class="st2" d="M280.3,0c-59,0-106.8,47.8-106.8,106.8s47.8,106.8,106.8,106.8s106.8-47.8,106.8-106.8S339.3,0,280.3,0z
		 M280.3,131.9c-13.9,0-25.1-11.2-25.1-25.1s11.2-25.1,25.1-25.1c13.9,0,25.1,11.2,25.1,25.1S294.2,131.9,280.3,131.9z"/>
</g>
</svg>
